<svg xmlns="http://www.w3.org/2000/svg" version="1.1" xmlns:xlink="http://www.w3.org/1999/xlink" width="512" height="512" x="0" y="0" viewBox="0 0 682.667 682" style="enable-background:new 0 0 512 512" xml:space="preserve" class=""><g><path d="M168.813 138.602c-49.016 0-88.895 39.875-88.895 88.894 0 49.02 39.879 88.902 88.894 88.902 49.02 0 88.899-39.882 88.899-88.902s-39.879-88.894-88.899-88.894zm0 108.488c-10.805 0-19.594-8.79-19.594-19.594 0-10.8 8.789-19.594 19.594-19.594s19.593 8.793 19.593 19.594c0 10.805-8.789 19.594-19.594 19.594zM469.066 138.602c-49.02 0-88.902 39.875-88.902 88.894 0 49.02 39.883 88.902 88.902 88.902 49.016 0 88.899-39.882 88.899-88.902s-39.88-88.894-88.899-88.894zm.887 108.488c-10.808 0-19.598-8.79-19.598-19.594 0-10.8 8.79-19.594 19.598-19.594 10.805 0 19.594 8.793 19.594 19.594 0 10.805-8.79 19.594-19.594 19.594zm0 0" fill="#ffffff" opacity="1" data-original="#000000" class=""></path><path d="M640 58.684H496.883C454.305 17.324 388.516-7.168 318.94-7.168c-66.738 0-134.05 25.078-177.867 65.852H1.18l38.12 60.66C14.786 148.652 0 186.383 0 227.496 0 320.582 75.734 396.31 168.813 396.31c48.12 0 91.597-20.235 122.375-52.645l27.753 64.047 27.747-64.047c30.78 32.41 74.257 52.645 122.378 52.645 93.082 0 168.817-75.727 168.817-168.813 0-40.059-14.04-76.894-37.438-105.875zM168.812 358.937c-72.476 0-131.433-58.964-131.433-131.44 0-72.477 58.957-131.435 131.434-131.435S300.25 155.02 300.25 227.496c0 72.477-58.96 131.441-131.438 131.441zm431.692-131.44c0 72.476-58.961 131.44-131.438 131.44-72.472 0-131.441-58.96-131.441-131.44 0-72.47 58.969-131.435 131.441-131.435 72.477 0 131.438 58.965 131.438 131.434zm0 0" fill="#ffffff" opacity="1" data-original="#000000" class=""></path></g></svg>